<?xml version="1.0" standalone="no"?><!DOCTYPE svg PUBLIC "-//W3C//DTD SVG 1.1//EN" "http://www.w3.org/Graphics/SVG/1.1/DTD/svg11.dtd"><svg width="200" height="200" viewBox="0 0 200 200" version="1.1" xmlns="http://www.w3.org/2000/svg" xmlns:xlink="http://www.w3.org/1999/xlink"><defs><style type="text/css"><![CDATA[
@font-face { font-family: ifont; src: url(http://at.alicdn.com/t/font_1442373896_4754455.eot?#iefix) format(embedded-opentype), url(http://at.alicdn.com/t/font_1442373896_4754455.woff) format(woff), url(http://at.alicdn.com/t/font_1442373896_4754455.ttf) format(truetype), url(http://at.alicdn.com/t/font_1442373896_4754455.svg#ifont) format(svg); }

]]></style></defs><g class="transform-group"><g transform="scale(0.1953125, 0.1953125)"><path d="M587.84 670.389c0 0-75.841 60.692-103.438 76.593-24.241 13.967-47.008 23.265-67.289 29.712-20.283 6.442-38.062 10.496-53.332 12.167-15.271 1.67-27.918 2.745-37.938 3.223-0.955 0.476-2.15 0.717-3.58 0.717h-11.454c-26.25 0-50.945-3.104-74.091-9.308-23.146-6.203-43.308-15.39-60.491-27.562-17.18-12.167-30.779-27.438-40.801-45.812-10.021-18.371-15.034-39.728-15.034-64.065 0.479-20.999 6.205-40.087 17.18-57.268 10.976-17.184 25.173-31.738 42.595-43.668 17.419-11.933 36.747-20.999 57.985-27.205 21.233-6.203 42.591-8.826 64.065-7.871 20.999 0.954 41.28 3.457 60.847 7.514 19.568 4.058 38.299 8.947 56.195 14.673 17.897 5.73 34.837 11.933 50.826 18.613 15.988 6.684 31.14 13.125 45.458 19.33 5.725 2.384 11.692 4.772 17.897 7.157 6.203 2.384 12.645 4.772 19.325 7.157 13.842-17.659 25.533-34.958 35.075-51.899 9.546-16.943 17.422-32.451 23.626-46.529 6.203-14.080 10.975-25.89 14.318-35.436 3.342-9.542 5.488-16.226 6.442-20.042h-310.678v-34.363h146.749v-79.455h-204.015v-34.363h204.016v-64.427c0-4.297 2.384-7.753 7.157-10.378 4.772-2.626 10.258-4.415 16.464-5.369 7.157-1.434 15.273-2.15 24.337-2.15h55.122v82.323h209.74v34.363h-209.74v79.455h166.67c0.037-0.237 0.083-0.477 0.119-0.713v0.713h-0.119c-3.353 21.266-9.035 43.693-17.059 67.293-6.679 20.521-16.582 43.905-29.708 70.15-13.125 26.246-30.423 53.21-51.899 80.889 0 0 164.289 78.577 337.714 106.262 28.805-63.883 44.838-134.764 44.838-209.389 0-281.631-228.305-509.936-509.936-509.936s-509.936 228.307-509.936 509.938 228.305 509.936 509.936 509.936c174.695 0 328.865-87.853 420.763-221.779-93.403-20.324-192.592-61.52-344.922-129.191zM186.967 647.479c-1.914 87.498 97.092 93.999 112.354 94.468 50.452 1.552 91.203-17.505 122.941-36.355 31.732-18.851 83.497-67.536 85.406-69.206s3.817-3.46 5.725-5.369c-13.838-7.638-27.439-14.677-40.801-21.119-13.362-6.442-81.25-42.9-141.503-49.14-114.085-11.817-143.54 60.103-144.123 86.721z" fill="#56abe4"></path></g></g></svg>