<?xml version="1.0" standalone="no"?><!DOCTYPE svg PUBLIC "-//W3C//DTD SVG 1.1//EN" "http://www.w3.org/Graphics/SVG/1.1/DTD/svg11.dtd"><svg width="200" height="200" viewBox="0 0 200 200" version="1.1" xmlns="http://www.w3.org/2000/svg" xmlns:xlink="http://www.w3.org/1999/xlink"><defs><style type="text/css"><![CDATA[
@font-face { font-family: ifont; src: url(http://at.alicdn.com/t/font_1442373896_4754455.eot?#iefix) format(embedded-opentype), url(http://at.alicdn.com/t/font_1442373896_4754455.woff) format(woff), url(http://at.alicdn.com/t/font_1442373896_4754455.ttf) format(truetype), url(http://at.alicdn.com/t/font_1442373896_4754455.svg#ifont) format(svg); }

]]></style></defs><g class="transform-group"><g transform="scale(0.1953125, 0.1953125)"><path d="M511.60064 7.04c-265.81504 0-482.4832 207.15008-498.88256 468.8128-1.49504 5.504-2.90304 11.08992-2.90304 17.18272 0 3.29728 1.12128 6.144 1.57184 9.28768-0.02048 1.75104-0.26112 3.44576-0.26112 5.20192 0 0.89088 0.128 1.74592 0.13312 2.6368l1.45408 0c6.14912 22.7584 23.41888 39.51104 44.5184 39.51104l552.71424 0-40.59648 53.48864c-16.71168 22.016-12.41088 53.41184 9.60512 70.12352 22.016 16.71168 53.41184 12.41088 70.12352-9.60512l97.14176-127.98464c6.44096-8.48896 8.83712-18.38592 9.22624-28.28288 1.05472-4.70016 2.432-9.27232 2.432-14.36672 0-11.56608-3.61472-21.7088-8.6016-30.67392-1.63328-6.05184-4.3008-11.93984-8.32512-17.24416L643.79904 317.1328c-16.70656-22.016-48.1024-26.3168-70.1184-9.60512-22.016 16.70656-26.3168 48.1024-9.60512 70.1184l44.5952 58.76224L129.04448 436.40832c33.4848-180.96128 191.93856-318.22848 382.55104-318.22848 214.9376 0 389.3504 174.4128 389.3504 389.3504s-174.4128 389.3504-389.3504 389.3504c-144.9472 0-271.21664-79.49312-338.23744-197.06368 0 0-13.96736-30.6432-18.67776-44.77952-6.58432-19.75296-39.51104-40.82688-68.15232-34.52416-31.84128 7.00928-47.42656 44.2112-36.89984 75.59168l-0.13312 3.71712c75.35616 180.98176 253.75744 308.1984 462.1056 308.1984 276.51072 0 500.48-223.9744 500.48-500.48S788.10624 7.04 511.60064 7.04z" fill="#56abe4"></path></g></g></svg>