<?xml version="1.0" standalone="no"?><!DOCTYPE svg PUBLIC "-//W3C//DTD SVG 1.1//EN" "http://www.w3.org/Graphics/SVG/1.1/DTD/svg11.dtd"><svg width="200" height="200" viewBox="0 0 200 200" version="1.1" xmlns="http://www.w3.org/2000/svg" xmlns:xlink="http://www.w3.org/1999/xlink"><defs><style type="text/css"><![CDATA[

]]></style></defs><g class="transform-group"><g transform="scale(0.1953125, 0.1953125)"><path d="M1024 211.605333l0 518.314667c0 14.08-11.52 25.6-25.6 25.6-14.08 0-25.6-11.52-25.6-25.6L972.8 211.605333c0-33.536-28.416-60.928-61.952-60.928L50.666667 150.677333 51.2 208.789333l0 597.866667c0 33.536 27.392 60.928 60.928 60.928l742.762667 0c14.08 0 25.6 11.52 25.6 25.6 0 14.08-11.52 25.6-25.6 25.6L112.128 918.784C50.176 918.784 0 868.608 0 806.656L0 208.789333c0-61.952 0-109.312 0-109.312l910.848 0C972.544 99.477333 1024 149.653333 1024 211.605333L1024 211.605333zM1024 211.605333M0 290.666667l1024 0 0 50.496-1024 0 0-50.496ZM0 437.333333l1024 0 0 50.496-1024 0 0-50.496ZM351.893333 800 101.333333 800l0-173.845333 250.56 0L351.893333 800zM154.666667 746.666667l143.893333 0 0-67.178667L154.666667 679.488 154.666667 746.666667z" fill="#56abe4"></path></g></g></svg>