<?xml version="1.0" standalone="no"?><!DOCTYPE svg PUBLIC "-//W3C//DTD SVG 1.1//EN" "http://www.w3.org/Graphics/SVG/1.1/DTD/svg11.dtd"><svg width="200" height="200" viewBox="0 0 200 200" version="1.1" xmlns="http://www.w3.org/2000/svg" xmlns:xlink="http://www.w3.org/1999/xlink"><defs><style type="text/css"><![CDATA[
@font-face { font-family: ifont; src: url(http://at.alicdn.com/t/font_1442373896_4754455.eot?#iefix) format(embedded-opentype), url(http://at.alicdn.com/t/font_1442373896_4754455.woff) format(woff), url(http://at.alicdn.com/t/font_1442373896_4754455.ttf) format(truetype), url(http://at.alicdn.com/t/font_1442373896_4754455.svg#ifont) format(svg); }

]]></style></defs><g class="transform-group"><g transform="scale(0.1953125, 0.1953125)"><path d="M952.15616 505.61024l0 12.98432C952.18688 516.39296 952.32 514.21184 952.32 512 952.32 509.8496 952.18688 507.74016 952.15616 505.61024zM564.79744 471.04c8.47872 0 15.36-6.88128 15.36-15.36 0-8.47872-6.88128-15.36-15.36-15.36L461.24032 440.32c0.77824-1.0752 1.47456-2.22208 1.96608-3.51232l61.7984-162.74432c3.01056-7.92576-0.9728-16.80384-8.9088-19.8144-7.936-3.01056-16.80384 0.9728-19.8144 8.9088l-51.38432 135.31136L393.5232 263.15776c-3.01056-7.92576-11.8784-11.91936-19.8144-8.9088-7.92576 3.01056-11.91936 11.8784-8.9088 19.8144l61.7984 162.74432c0.49152 1.30048 1.18784 2.44736 1.96608 3.51232l-99.28704 0c-8.47872 0-15.36 6.87104-15.36 15.36 0 8.47872 6.88128 15.36 15.36 15.36l102.4 0 0 102.4-102.4 0c-8.47872 0-15.36 6.88128-15.36 15.36s6.88128 15.36 15.36 15.36l102.4 0 0 143.36c0 8.47872 6.88128 15.36 15.36 15.36 8.47872 0 15.36-6.87104 15.36-15.36L462.39744 604.16l102.4 0c8.47872 0 15.36-6.88128 15.36-15.36s-6.88128-15.36-15.36-15.36l-102.4 0L462.39744 471.04 564.79744 471.04zM512 921.6c-226.21184 0-409.6-183.38816-409.6-409.6 0-226.21184 183.38816-409.6 409.6-409.6 137.61536 0 259.29728 67.9424 333.568 172.032l37.16096 0.12288C804.43392 152.576 667.70944 71.68 512 71.68 268.82048 71.68 71.68 268.81024 71.68 512s197.14048 440.32 440.32 440.32c155.58656 0 292.21888-80.77312 370.54464-202.58816l-37.00736-0.12288C771.25632 853.67808 649.59488 921.6 512 921.6zM926.72 440.32 646.71744 440.32c-8.47872 0-15.36 6.87104-15.36 15.36 0 8.47872 6.88128 15.36 15.36 15.36L926.72 471.04c8.47872 0 15.36-6.88128 15.36-15.36C942.08 447.19104 935.19872 440.32 926.72 440.32zM926.72 573.44 646.71744 573.44c-8.47872 0-15.36 6.88128-15.36 15.36s6.88128 15.36 15.36 15.36L926.72 604.16c8.47872 0 15.36-6.88128 15.36-15.36S935.19872 573.44 926.72 573.44z" fill="#ecf0f1"></path></g></g></svg>