<?xml version="1.0" standalone="no"?><!DOCTYPE svg PUBLIC "-//W3C//DTD SVG 1.1//EN" "http://www.w3.org/Graphics/SVG/1.1/DTD/svg11.dtd"><svg width="200" height="200" viewBox="0 0 200 200" version="1.1" xmlns="http://www.w3.org/2000/svg" xmlns:xlink="http://www.w3.org/1999/xlink"><defs><style type="text/css"><![CDATA[
@font-face { font-family: ifont; src: url(http://at.alicdn.com/t/font_1442373896_4754455.eot?#iefix) format(embedded-opentype), url(http://at.alicdn.com/t/font_1442373896_4754455.woff) format(woff), url(http://at.alicdn.com/t/font_1442373896_4754455.ttf) format(truetype), url(http://at.alicdn.com/t/font_1442373896_4754455.svg#ifont) format(svg); }

]]></style></defs><g class="transform-group"><g transform="scale(0.1953125, 0.1953125)"><path d="M975.895273 162.629818 79.173818 162.629818c-30.952727 0-56.040727 19.269818-56.040727 50.222545l0 112.081455 0 28.020364 0 28.020364c0 15.476364 12.544 28.020364 28.020364 28.020364 0 1.326545-0.581818 2.443636-0.744727 3.723636 48.64 12.241455 84.829091 55.901091 84.829091 108.357818 0 52.433455-36.165818 96.116364-84.829091 108.357818 0.186182 1.28 0.744727 2.397091 0.744727 3.723636-15.476364 0-28.020364 12.544-28.020364 28.020364l0 28.020364 0 28.020364 0 112.081455c0 30.952727 25.088 54.109091 56.040727 54.109091l896.721455 0c30.952727 0 46.336-23.156364 46.336-54.109091L1022.231273 717.265455l0-28.020364 0-28.020364c0-15.476364-2.839273-28.020364-18.315636-28.020364 0-1.326545 0.581818-2.443636 0.744727-3.723636-48.64-12.241455-84.829091-55.924364-84.829091-108.357818 0-52.456727 36.165818-96.116364 84.829091-108.357818-0.186182-1.28-0.744727-2.397091-0.744727-3.723636 15.476364 0 18.315636-12.544 18.315636-28.020364l0-28.020364 0-28.020364L1022.231273 212.852364C1022.231273 181.899636 1006.848 162.629818 975.895273 162.629818zM975.895273 362.752c-65.256727 23.109818-112.081455 85.178182-112.081455 158.370909 0 73.169455 46.824727 135.261091 112.081455 158.347636l0 121.856c0 15.476364-12.544 35.770182-28.020364 35.770182L541.556364 837.096727c7.726545 0 14.010182-14.033455 14.010182-21.76l0-56.040727c0-7.749818-6.260364-14.010182-14.010182-14.010182l-28.020364 0c-7.726545 0-25.646545 6.260364-25.646545 14.010182l0 56.040727c0 7.749818 17.896727 21.76 25.646545 21.76L107.194182 837.096727c-15.476364 0-37.725091-20.317091-37.725091-35.770182l0-121.856c65.256727-23.086545 115.968-85.178182 115.968-158.347636 0-73.169455-50.711273-135.261091-115.968-158.370909l0-121.856c0-15.476364 22.248727-31.906909 37.725091-31.906909l380.672 0 0 45.917091c0 7.749818 17.896727 21.76 25.646545 21.76l28.020364 0c7.726545 0 14.010182-14.033455 14.010182-21.76L555.543273 208.965818l392.308364 0c15.476364 0 28.020364 16.430545 28.020364 31.906909L975.872 362.752zM541.556364 465.058909l-28.020364 0c-7.726545 0-25.646545 6.260364-25.646545 14.010182l0 56.040727c0 7.749818 17.896727 23.714909 25.646545 23.714909l28.020364 0c7.726545 0 14.010182-15.965091 14.010182-23.714909l0-56.040727C555.566545 471.319273 549.282909 465.058909 541.556364 465.058909zM541.556364 605.184l-28.020364 0c-7.726545 0-25.646545 6.260364-25.646545 14.010182l0 56.040727c0 7.726545 17.896727 23.714909 25.646545 23.714909l28.020364 0c7.726545 0 14.010182-15.965091 14.010182-23.714909l0-56.040727C555.566545 611.444364 549.282909 605.184 541.556364 605.184zM541.556364 324.957091l-28.020364 0c-7.726545 0-25.646545 6.260364-25.646545 14.010182l0 56.040727c0 7.749818 17.896727 23.714909 25.646545 23.714909l28.020364 0c7.726545 0 14.010182-15.965091 14.010182-23.714909l0-56.040727C555.566545 331.217455 549.282909 324.957091 541.556364 324.957091z" fill="#56abe4"></path></g></g></svg>