<?xml version="1.0" standalone="no"?><!DOCTYPE svg PUBLIC "-//W3C//DTD SVG 1.1//EN" "http://www.w3.org/Graphics/SVG/1.1/DTD/svg11.dtd"><svg width="287.6953125" height="200" viewBox="0 0 287.6953125 200" version="1.1" xmlns="http://www.w3.org/2000/svg" xmlns:xlink="http://www.w3.org/1999/xlink"><defs><style type="text/css"><![CDATA[
@font-face { font-family: ifont; src: url(http://at.alicdn.com/t/font_1442373896_4754455.eot?#iefix) format(embedded-opentype), url(http://at.alicdn.com/t/font_1442373896_4754455.woff) format(woff), url(http://at.alicdn.com/t/font_1442373896_4754455.ttf) format(truetype), url(http://at.alicdn.com/t/font_1442373896_4754455.svg#ifont) format(svg); }

]]></style></defs><g class="transform-group"><g transform="scale(0.1953125, 0.1953125)"><path d="M1039.624007 511.184683c10.84561-18.392031 15.320372-37.997556 16.913084-47.553827 4.550605-28.441284 2.768285-86.233974-37.542495-100.795912-1.78232-0.606747-4.664371-1.478947-9.442506-1.478947-34.357071-0.151687-106.180795 29.465171-166.0971 68.334926l2.464911 81.49376L1039.624007 511.184683zM199.430547 928.475206l235.835129-267.234307L1.592973 661.240899l0.568826 179.976447c0.417139 114.978632 63.215495 183.237714 197.268748 182.668889l226.506388 0-35.570566-142.130578L199.430547 928.475206zM1471.286859 661.240899 1049.749104 661.240899l235.835129 267.234307-190.822057-46.605785-35.570566 142.130578 209.365774 0c134.242862-0.568826 204.018813-72.809688 203.715439-187.902085L1471.286859 661.240899zM682.515241 429.122098c-59.612932-39.248972-131.209125-69.396734-165.566196-69.548421-4.702292 0-7.622264 0.796356-9.51835 1.478947-40.386624 14.220642-42.624005 71.97541-38.263008 100.492538 1.592712 9.935489 6.105396 30.602822 17.785283 49.639522l192.45269 0L682.515241 429.122098zM265.793543 511.184683c-38.604303-136.973225 11.07314-281.834167 200.985076-301.250083 114.826945-11.831574 225.21705 65.870014 296.471948 131.702107 74.061104-67.99363 189.836092-149.221938 305.800689-131.702107 162.722068 24.497426 212.930415 166.741769 182.365515 301.250083l219.490871 0-0.910121-287.749954c-0.22753-115.016554-50.435877-221.917861-184.413287-221.4628L226.73418 0c-133.939488 0.455061-226.923527 113.61345-226.733918 228.592082l0.948043 282.554679L265.793543 511.184683 265.793543 511.184683zM734.619674 661.240899 437.199684 1023.962078 1047.928862 1023.962078 750.357185 661.240899Z" fill="#56abe4"></path></g></g></svg>