<?xml version="1.0" standalone="no"?><!DOCTYPE svg PUBLIC "-//W3C//DTD SVG 1.1//EN" "http://www.w3.org/Graphics/SVG/1.1/DTD/svg11.dtd"><svg width="200" height="200" viewBox="0 0 200 200" version="1.1" xmlns="http://www.w3.org/2000/svg" xmlns:xlink="http://www.w3.org/1999/xlink"><defs><style type="text/css"><![CDATA[

]]></style></defs><g class="transform-group"><g transform="scale(0.1953125, 0.1953125)"><path d="M751.872 960 276.736 960c-52 0-99.616-40.096-108.48-91.328L99.68 453.152c-4.48-26.08 2.272-52.256 18.56-71.584 16.256-19.328 40.896-30.4 67.52-30.4L842.88 351.168c26.688 0 51.328 11.104 67.584 30.432 16.256 19.328 22.976 45.504 18.4 71.808l-68.512 415.04C851.424 919.904 803.808 960 751.872 960zM185.76 415.2c-7.84 0-14.464 2.688-18.592 7.616-4.16 4.928-5.696 11.936-4.384 19.712l68.608 415.52C234.848 878.144 256.064 896 276.736 896l475.136 0c20.672 0 41.888-17.888 45.408-38.208l68.512-415.04c1.376-8-0.16-14.976-4.288-19.904-4.16-4.928-10.784-7.648-18.624-7.648L185.76 415.2zM320.416 607.328c-35.328 0-64.032-28.704-64.032-64 0-35.296 28.704-64 64.032-64 35.264 0 63.968 28.704 63.968 64C384.384 578.592 355.68 607.328 320.416 607.328zM320.416 543.328c0 0-0.064 0-0.096 0.032l0.064 31.968L320.416 543.328zM706.272 607.328c-35.296 0-64-28.704-64-64 0-35.296 28.704-64 64-64s64 28.704 64 64C770.272 578.592 741.568 607.328 706.272 607.328zM706.304 543.328c-0.032 0-0.064 0-0.064 0l0.032 32L706.304 543.328zM738.304 320c-17.696 0-32-14.336-32-32 0-91.584-102.24-160-193.696-160-93.536 0-190.304 59.712-190.304 159.616 0 17.664-14.336 32-32 32s-32-14.336-32-32C258.304 147.648 387.616 64 512.64 64c121.888 0 257.696 92 257.696 224C770.304 305.664 756 320 738.304 320z" fill="#ecf0f1"></path></g></g></svg>