<?xml version="1.0" standalone="no"?><!DOCTYPE svg PUBLIC "-//W3C//DTD SVG 1.1//EN" "http://www.w3.org/Graphics/SVG/1.1/DTD/svg11.dtd"><svg width="200" height="200" viewBox="0 0 200 200" version="1.1" xmlns="http://www.w3.org/2000/svg" xmlns:xlink="http://www.w3.org/1999/xlink"><defs><style type="text/css"><![CDATA[

]]></style></defs><g class="transform-group"><g transform="scale(0.1953125, 0.1953125)"><path d="M943.471845 673.553399C882.827185 755.075727 801.801941 809.75534 706.858252 844.05437 666.594177 858.469903 625.335924 868.411651 583.083496 872.885437 563.697088 874.873786 543.813592 875.867962 524.427185 877.359223 522.438836 877.359223 519.953399 878.353399 518.959223 879.347571 498.081555 906.687378 471.735924 927.067962 443.401941 945.957282 400.652427 974.788349 354.423301 998.648542 307.2 1020.023303 292.287379 1026.982525 276.380582 1024 265.44466 1013.561164 254.508738 1002.625244 251.526213 987.215534 257.98835 971.30874 271.409709 937.506794 283.836893 903.704853 292.784466 868.411651 294.275728 862.943689 294.275728 858.469903 292.287379 853.001941 286.32233 837.592231 291.790291 820.69126 305.21165 811.246601 318.63301 801.304853 338.019418 801.801941 351.440777 812.737866 362.376699 821.685437 368.341747 832.621357 368.838835 847.036895 369.335922 867.417475 364.365049 886.306794 359.394175 905.693206 358.897087 907.184466 358.4 908.675727 358.4 910.166992 358.4 910.664076 358.4 910.664076 358.897087 912.15534 372.815534 903.704853 386.733981 895.25437 400.15534 886.803882 420.535922 873.382525 440.916504 859.961164 456.823303 841.071845 459.805823 837.592231 462.788349 833.118445 464.776697 828.64466 472.233008 812.240777 485.65437 804.287378 503.549513 805.778643 511.502912 806.275727 519.456311 805.281555 527.40971 804.784466 592.031067 802.299029 654.664076 789.871845 714.314563 763.526214 791.363105 729.724273 855.487378 680.015534 900.722332 608.434949 925.576697 569.165051 941.980584 525.918445 947.94563 479.689319 958.384466 395.184466 936.512622 318.63301 886.306794 250.532039 835.106794 180.442718 767.005823 134.213592 687.471845 104.885437 650.19029 90.96699 611.417475 82.019418 571.650487 77.545631 537.848542 73.568932 504.046601 73.071845 470.24466 76.054369 382.260194 83.510679 301.234951 110.353398 229.157282 161.05631 166.027184 205.297087 119.300971 261.965049 92.458253 334.539806 77.545631 375.300971 71.580582 417.05631 75.060194 459.805823 79.533981 521.941748 102.4 576.621357 138.687379 626.330097 166.027184 663.611651 199.829126 694.431067 238.104854 720.279614 251.526213 729.724273 257.491262 742.151458 254.508738 758.058252 252.023301 772.473786 243.075728 782.415534 228.163107 786.889319 217.227184 789.871845 207.285437 788.380584 197.840777 781.918445 162.547573 758.058252 130.236893 730.221357 102.4 698.407769 63.627184 654.166992 34.299029 603.961164 16.900971 547.293206 3.976699 505.537866-1.491262 462.788349 0.994175 419.04466 5.965049 329.568932 39.269903 251.526213 96.434951 183.92233 160.559223 107.370874 242.578641 57.165049 337.025243 27.339806 373.809709 15.906796 411.091262 8.450485 449.366992 4.473786 484.660193 0.497087 519.456311 0 554.749513 2.485437 654.664076 9.941748 747.122332 39.76699 830.135924 96.932039 899.728155 144.15534 953.910681 204.8 989.203882 281.351456 1005.607769 317.638835 1016.543689 355.914563 1021.017475 396.178641 1031.953399 498.578643 1004.613592 591.036895 943.471845 673.553399L943.471845 673.553399ZM363.867961 402.640777 509.514563 402.640777 655.161164 402.640777C678.027185 402.640777 694.431067 383.751456 691.94563 361.382524 689.460193 341.499029 674.547571 329.071845 652.675727 329.071845L367.347573 329.071845C362.873787 329.071845 358.4 329.568932 354.423301 330.563107 336.031068 335.533981 325.095146 352.434951 327.580582 371.821359 329.568932 389.219418 345.475728 402.640777 363.867961 402.640777L363.867961 402.640777ZM328.574757 522.935924C333.545631 538.842718 347.961165 548.784466 365.359223 548.784466L474.221357 548.784466 584.077668 548.784466C605.949513 548.784466 622.353399 532.877668 622.850487 512.994177 623.347571 491.619416 606.943689 475.215534 584.574756 475.215534L503.549513 475.215534 365.359223 475.215534C339.013592 475.215534 321.118447 498.578643 328.574757 522.935924L328.574757 522.935924Z" fill="#a9b7b7"></path></g></g></svg>