<?xml version="1.0" standalone="no"?><!DOCTYPE svg PUBLIC "-//W3C//DTD SVG 1.1//EN" "http://www.w3.org/Graphics/SVG/1.1/DTD/svg11.dtd"><svg width="200" height="200" viewBox="0 0 200 200" version="1.1" xmlns="http://www.w3.org/2000/svg" xmlns:xlink="http://www.w3.org/1999/xlink"><defs><style type="text/css"><![CDATA[
@font-face { font-family: ifont; src: url(http://at.alicdn.com/t/font_1442373896_4754455.eot?#iefix) format(embedded-opentype), url(http://at.alicdn.com/t/font_1442373896_4754455.woff) format(woff), url(http://at.alicdn.com/t/font_1442373896_4754455.ttf) format(truetype), url(http://at.alicdn.com/t/font_1442373896_4754455.svg#ifont) format(svg); }

]]></style></defs><g class="transform-group"><g transform="scale(0.1953125, 0.1953125)"><path d="M877.444645 835.072093l-730.957851 0c-44.779879 0-81.216743-36.437887-81.216743-81.201393L65.270051 266.699178c0-44.762483 36.436864-81.201393 81.216743-81.201393l730.957851 0c44.776809 0 81.213673 36.43891 81.213673 81.201393l0 487.172545C958.658318 798.634206 922.221454 835.072093 877.444645 835.072093zM146.486794 217.99185c-26.870997 0-48.728818 21.853727-48.728818 48.707328l0 487.172545c0 26.880207 21.856797 48.738028 48.728818 48.738028l730.957851 0c26.869974 0 48.725748-21.85782 48.725748-48.738028L926.170392 266.699178c0-26.853601-21.855774-48.707328-48.725748-48.707328L146.486794 217.99185zM790.816658 494.053256l-54.158481 0c-38.815027 0-70.380954-31.56388-70.380954-70.37686l0-54.118572c0-38.799678 31.56695-70.378907 70.380954-70.378907l54.158481 0c38.816051 0 70.380954 31.579229 70.380954 70.378907l0 54.118572C861.197612 462.489376 829.631686 494.053256 790.816658 494.053256zM736.658178 331.671958c-20.889773 0-37.894052 16.990976-37.894052 37.884842l0 54.118572c0 20.909216 17.004279 37.897122 37.894052 37.897122l54.158481 0c20.889773 0 37.895075-16.98893 37.895075-37.897122l0-54.118572c0-20.893866-17.005302-37.884842-37.895075-37.884842L736.658178 331.671958zM487.600799 623.970164 178.973696 623.970164c-8.972349 0-16.243963-7.264451-16.243963-16.240893 0-8.971325 7.270591-16.255219 16.243963-16.255219l308.627103 0c8.967232 0 16.241916 7.283894 16.241916 16.255219C503.841691 616.705714 496.567008 623.970164 487.600799 623.970164zM487.600799 705.168488 178.973696 705.168488c-8.972349 0-16.243963-7.264451-16.243963-16.240893 0-8.960069 7.270591-16.250102 16.243963-16.250102l308.627103 0c8.967232 0 16.241916 7.290033 16.241916 16.250102C503.841691 697.904037 496.567008 705.168488 487.600799 705.168488z" fill="#56abe4"></path></g></g></svg>