<?xml version="1.0" standalone="no"?><!DOCTYPE svg PUBLIC "-//W3C//DTD SVG 1.1//EN" "http://www.w3.org/Graphics/SVG/1.1/DTD/svg11.dtd"><svg width="200" height="200" viewBox="0 0 200 200" version="1.1" xmlns="http://www.w3.org/2000/svg" xmlns:xlink="http://www.w3.org/1999/xlink"><defs><style type="text/css"><![CDATA[
@font-face { font-family: ifont; src: url(http://at.alicdn.com/t/font_1442373896_4754455.eot?#iefix) format(embedded-opentype), url(http://at.alicdn.com/t/font_1442373896_4754455.woff) format(woff), url(http://at.alicdn.com/t/font_1442373896_4754455.ttf) format(truetype), url(http://at.alicdn.com/t/font_1442373896_4754455.svg#ifont) format(svg); }

]]></style></defs><g class="transform-group"><g transform="scale(0.1953125, 0.1953125)"><path d="M732.273311 330.064344c0-65.197908-25.390273-126.493949-71.491241-172.596963S553.384038 85.97614 488.18613 85.97614c-65.197908 0-126.493949 25.390273-172.596963 71.492264s-71.492264 107.398032-71.492264 172.596963c0 50.54007 15.316847 99.03762 44.294832 140.250254 8.127098 11.558244 24.085558 14.340613 35.641755 6.212492 11.558244-8.126075 14.33959-24.084535 6.212492-35.641755-22.886243-32.550347-34.983769-70.871117-34.983769-110.820991 0-106.378819 86.545098-192.922894 192.922894-192.922894 106.377796 0 192.921871 86.545098 192.921871 192.922894 0 106.377796-86.544075 192.921871-192.921871 192.921871 0 0 0 0 0 0s0 0 0 0c-52.565193 0-103.570867 10.3006-151.600767 30.615275-46.379307 19.61678-88.025822 47.694255-123.785258 83.45369-35.758412 35.758412-63.835887 77.405951-83.452667 123.785258-20.315698 48.030923-30.615275 99.035574-30.615275 151.600767 0 14.128789 11.453866 25.582655 25.582655 25.582655s25.582655-11.453866 25.582655-25.582655c0-186.53337 151.756309-338.28968 338.28968-338.28968 0 0 0 0 0 0s0 0 0 0c65.198931 0 126.493949-25.390273 172.59594-71.491241S732.273311 395.262252 732.273311 330.064344zM534.116205 649.357368c0 14.128789 11.452843 25.582655 25.582655 25.582655l339.988368 0c14.128789 0 25.582655-11.453866 25.582655-25.582655s-11.453866-25.582655-25.582655-25.582655L559.69886 623.774713C545.569048 623.774713 534.116205 635.229602 534.116205 649.357368zM899.687228 754.053871 559.69886 754.053871c-14.129812 0-25.582655 11.453866-25.582655 25.582655s11.452843 25.582655 25.582655 25.582655l339.988368 0c14.128789 0 25.582655-11.453866 25.582655-25.582655S913.814993 754.053871 899.687228 754.053871zM899.687228 884.332007 559.69886 884.332007c-14.129812 0-25.582655 11.453866-25.582655 25.582655s11.452843 25.582655 25.582655 25.582655l339.988368 0c14.128789 0 25.582655-11.453866 25.582655-25.582655S913.814993 884.332007 899.687228 884.332007z" fill="#56abe4"></path></g></g></svg>