<?xml version="1.0" standalone="no"?><!DOCTYPE svg PUBLIC "-//W3C//DTD SVG 1.1//EN" "http://www.w3.org/Graphics/SVG/1.1/DTD/svg11.dtd"><svg width="200" height="200" viewBox="0 0 200 200" version="1.1" xmlns="http://www.w3.org/2000/svg" xmlns:xlink="http://www.w3.org/1999/xlink"><defs><style type="text/css"><![CDATA[

]]></style></defs><g class="transform-group"><g transform="scale(0.1953125, 0.1953125)"><path d="M513.377961 1021.642694 40.44999 1021.642694C14.700736 1021.642694 5.688497 1012.630451 5.688497 986.452045 5.688497 845.260302 74.353175 749.129752 199.666212 690.764776 257.602034 663.72806 319.400244 651.282587 382.485917 643.128653 463.166913 632.828952 543.847912 632.3998 624.958058 640.982885 686.75627 647.849351 747.267019 659.007362 805.202838 682.18169 885.454684 714.368261 950.686126 764.579304 989.310005 844.401992 1012.91349 893.325573 1021.067423 944.824083 1018.492493 998.468362 1018.063341 1010.484683 1008.62195 1019.926074 996.605628 1021.213537 992.314088 1021.642694 988.022542 1021.642694 983.731002 1021.642694L513.377961 1021.642694 513.377961 1021.642694ZM970.427223 970.573336C966.564835 948.686471 964.419062 927.657916 959.269212 907.487667 936.524037 824.660895 880.733986 771.016617 805.202838 736.255126 745.121246 708.789253 680.748109 697.202089 615.087515 690.335623 535.693979 682.18169 456.300445 683.04 377.336066 694.627164 309.529697 704.497712 243.439944 720.376417 183.358351 756.425375 122.847604 792.474329 82.93626 843.97284 64.911782 911.779207 59.761931 930.661994 58.474468 950.403086 55.470389 970.573336L970.427223 970.573336 970.427223 970.573336ZM716.797068 241.011135C717.655378 295.942878 711.21806 349.587157 688.902043 400.227357 673.452491 435.418005 652.423931 466.31711 622.81229 491.208057 548.997762 553.435421 452.008903 546.139798 385.060842 473.612732 351.586812 437.134621 330.558254 394.219198 319.829398 346.583078 306.525617 286.07233 305.238154 224.703275 315.108702 164.192527 331.845717 64.19959 431.4095-8.327476 532.260743 3.259688 627.532988 13.988544 698.343434 80.936605 713.363833 175.779692 716.367911 196.808249 715.509605 219.124269 716.797068 241.011135L716.797068 241.011135ZM359.740743 235.432131C361.457359 265.043773 361.457359 288.218101 364.890593 311.39243 372.186215 364.178402 391.92731 411.385368 431.838654 448.292632 482.0497 495.070445 546.85199 494.212135 596.204728 447.005169 632.253682 412.243676 653.282241 368.899098 659.719554 319.975515 664.869405 281.351634 664.440252 241.869444 664.440252 202.816409 664.440252 127.714417 606.933581 63.341282 532.689901 53.899889 456.7296 44.458495 384.631688 91.665461 366.60721 165.909144 361.028205 189.941781 361.457359 216.12019 359.740743 235.432131L359.740743 235.432131Z" fill="#a9b7b7"></path></g></g></svg>