<?xml version="1.0" standalone="no"?><!DOCTYPE svg PUBLIC "-//W3C//DTD SVG 1.1//EN" "http://www.w3.org/Graphics/SVG/1.1/DTD/svg11.dtd"><svg width="200" height="200" viewBox="0 0 200 200" version="1.1" xmlns="http://www.w3.org/2000/svg" xmlns:xlink="http://www.w3.org/1999/xlink"><defs><style type="text/css"><![CDATA[

]]></style></defs><g class="transform-group"><g transform="scale(0.1953125, 0.1953125)"><path d="M70.811009 547.097835C70.811009 423.33945 70.79222 299.576367 70.820404 175.817982 70.834495 122.306936 105.843083 80.421578 158.766972 72.783853 176.254826 70.261431 194.437872 70.961321 212.174679 72.168514 229.028404 73.314642 241.283523 89.726826 240.484991 106.904661 239.66767 124.491156 225.890642 138.643963 208.492037 139.231119 197.232734 139.611596 185.949945 139.259303 174.67655 139.34855 152.876624 139.517651 138.66745 153.816073 138.662752 175.766312 138.639266 423.28778 138.639266 670.809248 138.662752 918.330716 138.662752 940.576881 152.965872 954.96455 175.230826 954.969248 399.970642 955.006826 624.715156 955.006826 849.454972 954.973945 872.401028 954.969248 886.337761 940.684917 886.35655 917.184587 886.417615 849.08389 886.380037 780.983193 886.380037 712.882495 886.380037 534.875596 886.370642 356.864 886.412917 178.857101 886.412917 169.500183 885.276183 160.566018 879.338862 152.909505 872.588917 144.205505 863.621872 139.63978 852.649101 139.428404 841.380404 139.207633 830.107009 139.428404 818.833615 139.329761 799.570202 139.155963 784.473248 124.486459 784.214899 105.810202 783.961248 87.185615 798.921982 71.487413 818.058569 71.712881 837.472294 71.943046 857.383927 70.975413 876.177615 74.864734 920.862532 84.118312 952.587743 124.293872 954.198899 169.875963 954.288147 172.454752 954.302239 175.042936 954.302239 177.626422 954.306936 423.973578 954.349211 670.320734 954.264661 916.66789 954.250569 961.254165 934.338936 993.942312 894.153982 1013.698936 880.921835 1020.204624 866.618716 1022.849174 851.859963 1022.849174 625.706275 1022.849174 399.557284 1022.89145 173.408294 1022.816294 115.824734 1022.797505 70.872073 977.614679 70.834495 919.805651 70.749945 795.558752 70.815706 671.325945 70.811009 547.097835L70.811009 547.097835ZM512.695193 207.228477C468.545761 207.228477 424.39633 207.256661 380.246899 207.219083 337.262385 207.181505 308.792367 178.706789 308.721908 135.717578 308.689028 115.049688 308.646752 94.386495 308.731303 73.718606 308.900404 32.570716 337.760294 3.621578 378.767266 3.598092 468.005578 3.541725 557.24389 3.537028 646.482202 3.602789 687.010055 3.63567 716.212844 32.871339 716.297394 73.30055 716.344367 95.138055 716.391339 116.980257 716.283303 138.817761 716.095413 176.921835 687.423413 206.617835 649.366312 207.045284 603.812404 207.557284 558.253798 207.167413 512.695193 207.167413 512.695193 207.186202 512.695193 207.204991 512.695193 207.228477L512.695193 207.228477ZM648.102752 72.032294 377.127927 72.032294 377.127927 138.958679 648.102752 138.958679 648.102752 72.032294 648.102752 72.032294ZM511.887266 615.160954C445.454092 615.160954 379.020917 615.132771 312.587743 615.189138 302.902018 615.198532 293.888 613.42767 286.466349 606.748183 275.855266 597.193982 272.290055 585.234789 276.169982 571.669138 280.064 558.051817 289.543046 549.977248 303.630092 547.656807 306.161908 547.238752 308.764183 547.079046 311.333578 547.079046 445.374239 547.050862 579.414899 547.032073 713.45556 547.079046 736.321761 547.08844 751.484477 562.50011 750.117578 583.990018 749.187523 598.659523 737.632294 611.746055 723.094312 614.240294 718.960734 614.949578 714.690936 615.128073 710.482202 615.132771 644.28389 615.175046 578.085578 615.160954 511.887266 615.160954L511.887266 615.160954ZM512.004697 784.839633C444.397211 784.839633 376.789725 784.853725 309.177541 784.825541 294.912 784.820844 284.230459 778.413798 278.128734 765.613798 272.177321 753.133211 273.577101 740.859303 282.126092 729.877138 289.054532 720.971156 298.519486 717.006679 309.792881 717.025468 341.250349 717.081835 372.707817 717.03956 404.165284 717.03956 507.457761 717.03956 610.745541 717.020771 714.038018 717.058349 735.227303 717.067743 750.150459 731.150092 750.211523 750.939596 750.26789 769.611156 735.753394 784.618862 716.945615 784.773872 691.359706 784.989945 665.769101 784.834936 640.183193 784.834936 597.45233 784.839633 554.730862 784.839633 512.004697 784.839633L512.004697 784.839633ZM444.805872 377.311119C489.875963 377.311119 534.950752 377.165505 580.020844 377.372183 602.86356 377.48022 618.472514 397.424734 613.376 419.313908 609.834275 434.518899 596.39545 445.050128 579.82356 445.125284 549.775266 445.261505 519.726972 445.172257 489.678679 445.16756 429.582092 445.16756 369.485505 445.270899 309.388917 445.106495 284.784734 445.040734 268.447706 421.845725 276.766532 399.374092 281.78789 385.813138 294.089982 377.372183 309.586202 377.339303 354.660991 377.254752 399.73578 377.311119 444.805872 377.311119L444.805872 377.311119Z" fill="#56abe4"></path></g></g></svg>