<?xml version="1.0" standalone="no"?><!DOCTYPE svg PUBLIC "-//W3C//DTD SVG 1.1//EN" "http://www.w3.org/Graphics/SVG/1.1/DTD/svg11.dtd"><svg width="200" height="200" viewBox="0 0 200 200" version="1.1" xmlns="http://www.w3.org/2000/svg" xmlns:xlink="http://www.w3.org/1999/xlink"><defs><style type="text/css"><![CDATA[
@font-face { font-family: ifont; src: url(http://at.alicdn.com/t/font_1442373896_4754455.eot?#iefix) format(embedded-opentype), url(http://at.alicdn.com/t/font_1442373896_4754455.woff) format(woff), url(http://at.alicdn.com/t/font_1442373896_4754455.ttf) format(truetype), url(http://at.alicdn.com/t/font_1442373896_4754455.svg#ifont) format(svg); }

]]></style></defs><g class="transform-group"><g transform="scale(0.1953125, 0.1953125)"><path d="M541.635 745.84l-0.747 0c-32.667-0.18-63.377-13.15-86.36-36.343-22.985-23.253-35.522-54.097-35.343-86.795C419.589 555.605 474.492 501 541.605 501c33.414 0.179 64.08 13.136 87.094 36.344 22.954 23.253 35.507 54.097 35.327 86.794C663.607 691.264 608.734 745.84 541.635 745.84zM541.963 562.21c-33.907 0-61.359 27.317-61.568 60.851-0.09 16.319 6.187 31.742 17.693 43.338 11.477 11.686 26.811 18.142 43.159 18.231l0.418 30.605L541.665 684.63c33.533 0 60.97-27.317 61.18-60.851 0.09-16.319-6.187-31.742-17.693-43.337C573.646 568.756 558.312 562.3 541.963 562.21zM755.84 745.84c-0.27 0-0.538 0-0.776 0-32.668-0.209-63.363-13.15-86.316-36.402l43.606-42.979c11.477 11.626 26.779 18.082 43.128 18.201 0.12 0 0.269 0 0.388 0 16.169 0 31.472-6.276 43.009-17.692 11.657-11.507 18.111-26.84 18.201-43.188 0.09-16.319-6.187-31.742-17.663-43.337-11.477-11.657-26.809-18.113-43.157-18.203-17.007-0.808-31.741 6.157-43.396 17.664l-43.039-43.576C692.897 513.523 723.383 501 755.84 501c0.239 0 0.538 0 0.718 0 32.696 0.179 63.361 13.106 86.376 36.344 22.953 23.253 35.506 54.097 35.297 86.794-0.209 32.696-13.121 63.361-36.374 86.376C818.844 733.287 788.297 745.84 755.84 745.84zM1000.68 868.26 21.32 868.26 21.32 133.74l979.36 0L1000.68 868.26zM82.53 807.05l856.94 0 0-612.1L82.53 194.95 82.53 807.05zM143.74 317.37l734.52 0 0 61.21L143.74 378.58 143.74 317.37z" fill="#56abe4"></path></g></g></svg>