<?xml version="1.0" standalone="no"?><!DOCTYPE svg PUBLIC "-//W3C//DTD SVG 1.1//EN" "http://www.w3.org/Graphics/SVG/1.1/DTD/svg11.dtd"><svg width="200" height="200" viewBox="0 0 200 200" version="1.1" xmlns="http://www.w3.org/2000/svg" xmlns:xlink="http://www.w3.org/1999/xlink"><defs><style type="text/css"><![CDATA[
@font-face { font-family: ifont; src: url(http://at.alicdn.com/t/font_1442373896_4754455.eot?#iefix) format(embedded-opentype), url(http://at.alicdn.com/t/font_1442373896_4754455.woff) format(woff), url(http://at.alicdn.com/t/font_1442373896_4754455.ttf) format(truetype), url(http://at.alicdn.com/t/font_1442373896_4754455.svg#ifont) format(svg); }

]]></style></defs><g class="transform-group"><g transform="scale(0.1953125, 0.1953125)"><path d="M898.143059 486.847134c0-24.481577-9.946536-58.749032-53.162804-91.937922 34.698267-26.76048 53.162804-58.157561 53.162804-91.832522 0-51.645241-43.415812-97.93859-122.248252-130.35386-70.641897-29.046546-163.936723-45.043892-262.699074-45.043892-98.763374 0-192.060247 15.997346-262.702144 45.043892-78.831416 32.414247-122.246205 78.70862-122.246205 130.35386 0 33.666774 18.455327 65.058738 53.140291 91.815125-42.977837 32.960693-53.139268 67.084884-53.140291 91.955318 0 33.190937 17.934464 64.169485 51.673893 90.677209-41.7468 32.608675-51.673893 66.237587-51.673893 90.823542 0 51.645241 43.414789 97.93859 122.246205 130.35386 70.641897 29.046546 163.937746 45.043892 262.701121 45.043892 98.762351 0 192.058201-15.997346 262.700097-45.043892 78.83244-32.41527 122.248252-78.70862 122.248252-130.35386 0-24.204262-9.720386-57.970296-51.699476-90.804099C880.199385 551.031968 898.143059 520.045233 898.143059 486.847134zM272.59905 226.482221c63.792908-26.230408 149.238976-40.676421 240.597707-40.676421 91.355661 0 176.800705 14.446014 240.593614 40.676421 53.992705 22.200628 86.22685 50.833759 86.22685 76.594469s-32.234145 54.392818-86.22685 76.594469c-63.792908 26.230408-149.237953 40.676421-240.593614 40.676421-91.358731 0-176.803775-14.446014-240.597707-40.676421-53.991682-22.200628-86.224804-50.833759-86.224804-76.594469S218.607368 248.682849 272.59905 226.482221zM250.494613 433.429527c70.641897 29.04757 163.93877 45.043892 262.702144 45.043892 98.762351 0 192.057177-15.996322 262.699074-45.043892 4.711302-1.938142 9.293667-3.925403 13.751189-5.960759l-0.119727 0.205685c32.558533 18.969027 50.490951 39.983643 50.490951 59.172681 0 25.759687-32.234145 54.392818-86.22685 76.593446-63.792908 26.230408-149.237953 40.676421-240.594637 40.676421-91.357707 0-176.803775-14.446014-240.596683-40.676421-53.991682-22.200628-86.224804-50.833759-86.224804-76.593446 0-19.123546 18.33867-40.444131 50.647517-59.253522C241.391281 429.584965 245.879502 431.531294 250.494613 433.429527zM840.01722 668.346861c0 25.76071-32.234145 54.392818-86.22685 76.594469-63.792908 26.230408-149.237953 40.676421-240.594637 40.676421-91.357707 0-176.803775-14.446014-240.596683-40.676421-53.991682-22.199605-86.224804-50.833759-86.224804-76.594469 0-18.692734 17.514909-39.486316 48.478108-57.979506 5.050016 2.339278 10.259668 4.620227 15.642259 6.832615 70.641897 29.046546 163.937746 45.043892 262.701121 45.043892 98.762351 0 192.058201-15.997346 262.700097-45.043892 5.382591-2.213411 10.593266-4.493338 15.642259-6.833639C822.816466 629.022227 840.01722 649.558959 840.01722 668.346861z" fill="#56abe4"></path></g></g></svg>