<?xml version="1.0" standalone="no"?><!DOCTYPE svg PUBLIC "-//W3C//DTD SVG 1.1//EN" "http://www.w3.org/Graphics/SVG/1.1/DTD/svg11.dtd"><svg width="200" height="200" viewBox="0 0 200 200" version="1.1" xmlns="http://www.w3.org/2000/svg" xmlns:xlink="http://www.w3.org/1999/xlink"><defs><style type="text/css"><![CDATA[

]]></style></defs><g class="transform-group"><g transform="scale(0.1953125, 0.1953125)"><path d="M382.72 960c-0.928 0-1.856-0.032-2.816-0.128-160.928-14.016-282.272-90.56-282.272-178.016 0-84.768 127.232-140.032 254.912-158.912l0-12.544c-93.28-70.016-106.624-191.648-106.624-313.44 0-145.888 85.856-232.96 229.664-232.96 142.144 0 220.448 82.72 220.448 232.96 0 69.76-23.84 157.888-62.208 230.016-8.288 15.584-27.648 21.536-43.296 13.216-15.584-8.288-21.536-27.68-13.216-43.296 33.248-62.496 54.72-140.96 54.72-199.968 0-113.696-51.168-168.96-156.448-168.96-109.92 0-165.664 56.832-165.664 168.96 0 109.728 11.136 218.336 91.808 269.696 9.216 5.888 14.816 16.064 14.816 27.008l0 57.472c0 16.384-12.352 30.08-28.64 31.808-138.112 14.592-226.272 68.32-226.272 98.912 0 39.552 85.152 102.176 223.84 114.272 17.6 1.536 30.624 17.056 29.088 34.656C413.12 947.424 399.136 960 382.72 960zM768.768 768.064l-128 0c-17.696 0-32-14.304-32-32s14.304-32 32-32l128 0c17.696 0 32 14.304 32 32S786.464 768.064 768.768 768.064zM704.768 867.264l-64 0c-17.696 0-32-14.304-32-32s14.304-32 32-32l64 0c17.696 0 32 14.304 32 32S722.464 867.264 704.768 867.264zM832.672 963.264l-255.744 0c-52.928 0-96-43.072-96-96l0-163.2c0-52.928 43.072-96 96-96l255.744 0c52.928 0 96 43.072 96 96l0 163.2C928.672 920.192 885.6 963.264 832.672 963.264zM576.896 672.064c-17.664 0-32 14.336-32 32l0 163.2c0 17.664 14.336 32 32 32l255.744 0c17.664 0 32-14.336 32-32l0-163.2c0-17.664-14.336-32-32-32L576.896 672.064z" fill="#56abe4"></path></g></g></svg>