<?xml version="1.0" standalone="no"?><!DOCTYPE svg PUBLIC "-//W3C//DTD SVG 1.1//EN" "http://www.w3.org/Graphics/SVG/1.1/DTD/svg11.dtd"><svg width="200" height="200" viewBox="0 0 200 200" version="1.1" xmlns="http://www.w3.org/2000/svg" xmlns:xlink="http://www.w3.org/1999/xlink"><defs><style type="text/css"><![CDATA[

]]></style></defs><g class="transform-group"><g transform="scale(0.1953125, 0.1953125)"><path d="M190.56 960.512c-17.664 0-32-14.304-32-32 0-69.504 82.08-119.808 226.464-139.84l0-9.696C287.072 704 287.072 564.928 287.072 480.288c0-139.648 82.176-223.04 219.84-223.04l7.328 0c137.696 0 219.872 83.36 219.872 223.04 0 10.24-0.096 20.704-0.384 31.264-0.512 17.696-14.912 31.648-32.864 31.104-17.664-0.48-31.584-15.2-31.136-32.864 0.288-9.952 0.384-19.808 0.384-29.504 0-105.536-52.448-159.04-155.872-159.04l-7.328 0c-103.392 0-155.84 53.504-155.84 159.04 0 102.24 6.432 206.176 83.168 255.04 9.216 5.888 14.816 16.064 14.816 27.008l0 54.688c0 16.384-12.352 30.08-28.64 31.808-128.512 13.568-197.824 51.2-197.824 79.68C222.56 946.176 208.224 960.512 190.56 960.512zM833.76 960.512c-17.696 0-32-14.304-32-32 0-28.512-69.312-66.112-197.792-79.68-16.288-1.728-28.672-15.424-28.672-31.808l0-54.688c0-17.696 14.304-32 32-32s32 14.304 32 32l0 26.336c144.384 20.032 226.432 70.336 226.432 139.84C865.76 946.176 851.424 960.512 833.76 960.512zM612.256 673.472c-44 0-76.96-4.48-77.792-4.704-15.776-4.864-25.248-20.896-21.92-37.088 3.328-16.128 18.4-26.912 34.848-25.312 79.776 8.736 201.664 1.216 223.008-43.2 7.616-15.904 26.688-22.72 42.688-15.008 15.936 7.648 22.656 26.752 15.008 42.688C794.72 660.416 687.424 673.472 612.256 673.472zM896 640c-17.696 0-32-14.304-32-32l0-111.84-42.752-15.232C808.512 476.384 800 464.32 800 450.784c0-160.576-129.184-291.2-288-291.2-158.784 0-288 130.656-288 291.2 0 10.336-4.992 20.032-13.408 26.048L192 490.08 192 608c0 17.696-14.336 32-32 32s-32-14.304-32-32l0-134.4c0-10.336 4.992-20.032 13.408-26.048l18.976-13.504C169.088 245.92 323.456 95.584 512 95.584c186.496 0 339.584 147.104 351.296 332.384l43.456 15.488C919.488 448 928 460.064 928 473.6L928 608C928 625.696 913.696 640 896 640z" fill="#56abe4"></path></g></g></svg>