<?xml version="1.0" standalone="no"?><!DOCTYPE svg PUBLIC "-//W3C//DTD SVG 1.1//EN" "http://www.w3.org/Graphics/SVG/1.1/DTD/svg11.dtd"><svg width="218.9453125" height="200" viewBox="0 0 218.9453125 200" version="1.1" xmlns="http://www.w3.org/2000/svg" xmlns:xlink="http://www.w3.org/1999/xlink"><defs><style type="text/css"><![CDATA[

]]></style></defs><g class="transform-group"><g transform="scale(0.1953125, 0.1953125)"><path d="M1109.954504 327.029816C1109.873633 326.418086 1109.756821 325.845318 1109.633589 325.356972 1109.145799 322.980176 1108.498834 320.690405 1107.574606 318.488948L1012.858788 79.926481C996.451104 30.45672 949.339656 0.125988 894.224618 5.0e-06L229.400099 5.0e-06C173.557226 5.0e-06 130.163247 30.051496 114.441033 77.556186L12.613765 320.978735C12.132394 322.412605 11.60096 324.533533 11.1581 326.705116 3.764243 349.679484 0.04806 373.268179 0.04806 396.942591 0.12893 480.179694 45.262263 556.182518 117.795226 595.308684 117.795226 595.308684 117.795226 595.351544 117.837587 595.351544 117.87353 595.351544 117.87353 595.351544 117.87353 595.389209L117.87353 595.389209C117.87353 595.389209 117.917173 595.389209 117.917173 595.432069 147.777571 611.539711 182.890689 619.713021 222.449105 619.713021 288.755053 619.513007 350.177977 590.03558 392.036705 539.581333 433.697749 589.625161 494.632883 618.896079 560.822017 619.307797 626.47972 618.777889 687.255684 589.382287 728.713909 539.381319 770.579054 589.831669 832.075144 619.183113 898.708429 619.183113 939.038323 618.983099 974.835625 610.392876 1004.979715 593.673502 1076.420282 554.17718 1120.746201 478.462691 1120.70897 396.080194 1120.824498 372.413572 1116.990219 348.657333 1109.954504 327.029816L1109.954504 327.029816 1109.954504 327.029816ZM966.307015 521.921634C948.000804 532.063915 925.176124 537.256493 898.626275 537.418843 849.412198 537.418843 804.557422 512.153406 778.370843 469.263335 776.514677 465.216293 773.40053 458.515813 767.586854 452.053017 760.915698 444.492739 748.794136 435.538852 728.835857 435.538852 712.749081 435.538852 698.166756 442.201664 689.923118 452.419278 684.467582 458.634006 681.476667 464.808471 679.336812 469.307494 653.472432 511.658565 608.987345 537.174671 560.778372 537.543528 511.971221 537.256494 467.356483 511.828707 441.336784 469.145147 439.517844 465.383837 436.484566 459.045725 431.761996 453.686899 412.76646 430.755397 370.259486 431.939895 353.692627 451.928334 347.595263 458.676866 344.400243 465.465665 342.34126 470.082876 316.235555 512.441736 271.343548 537.831861 222.372086 537.99421 196.265098 537.99421 173.920504 533.047105 155.897978 523.313943L155.862035 523.313943 155.819675 523.313943C109.593951 498.417363 80.86317 450.007417 80.825944 397.025718 80.825944 381.36616 83.408659 365.584516 88.581791 350.213288 88.945066 349.109314 89.265979 347.885848 89.549668 346.614331L189.8404 106.710215C191.899384 100.578605 198.127682 81.894155 229.31923 81.894155L894.340147 81.894155C907.152313 82.668238 929.213221 84.95671 937.049939 108.301236L1030.958335 344.897322C1031.32161 346.614331 1031.765756 348.254707 1032.172676 349.602852 1037.383033 365.01694 1039.965749 380.675199 1039.965749 396.207476 1040.054318 448.577444 1011.80876 496.73672 966.307015 521.921634L966.307015 521.921634 966.307015 521.921634ZM996.610277 653.120599C974.266964 653.120599 956.205932 671.392032 956.205932 694.000138L956.286803 917.067991C956.286803 929.739024 946.065051 940.044954 933.580219 940.081321L173.314617 940.576162C160.787421 940.576162 150.608032 930.355953 150.608032 917.761548L150.32306 698.544618C150.2807 675.97288 132.177305 657.739112 109.91358 657.739112L109.833994 657.739112C87.53176 657.781971 69.465591 676.097563 69.509235 698.706967L69.794206 917.804408C69.794206 975.448778 116.221464 1022.341731 173.314617 1022.341731L933.695743 1021.854683C990.715731 1021.73 1037.100628 974.712361 1037.100628 917.025131L1037.019758 694.000139C1037.021041 671.392031 1018.917643 653.120599 996.610277 653.120599L996.610277 653.120599 996.610277 653.120599ZM876.565366 366.936558 230.045778 366.936558C207.744827 366.936558 189.636298 348.619669 189.636298 326.050526 189.636298 303.480083 207.744828 285.164493 230.045778 285.164493L876.565366 285.164493C898.909958 285.164493 916.969711 303.480083 916.969711 326.050526 916.968428 348.619669 898.909963 366.936558 876.565366 366.936558L876.565366 366.936558 876.565366 366.936558Z" fill="#56abe4"></path></g></g></svg>