<?xml version="1.0" standalone="no"?><!DOCTYPE svg PUBLIC "-//W3C//DTD SVG 1.1//EN" "http://www.w3.org/Graphics/SVG/1.1/DTD/svg11.dtd"><svg width="200" height="200" viewBox="0 0 200 200" version="1.1" xmlns="http://www.w3.org/2000/svg" xmlns:xlink="http://www.w3.org/1999/xlink"><defs><style type="text/css"><![CDATA[
@font-face { font-family: ifont; src: url(http://at.alicdn.com/t/font_1442373896_4754455.eot?#iefix) format(embedded-opentype), url(http://at.alicdn.com/t/font_1442373896_4754455.woff) format(woff), url(http://at.alicdn.com/t/font_1442373896_4754455.ttf) format(truetype), url(http://at.alicdn.com/t/font_1442373896_4754455.svg#ifont) format(svg); }

]]></style></defs><g class="transform-group"><g transform="scale(0.1953125, 0.1953125)"><path d="M525.764172 476.454893c-8.728667 0-17.132774-3.545752-23.230491-9.856013l-142.71759-147.857422c-12.370639-12.824449-12.005867-33.260273 0.818582-45.63522 12.81296-12.376383 33.271762-12.011611 45.640964 0.801349l117.266875 121.491906 95.75397-119.275991c11.158563-13.90153 31.488115-16.117446 45.372412-4.964627 13.895786 11.158563 16.12319 31.470882 4.964627 45.366667l-118.702984 147.857422c-5.794698 7.236551-14.434326 11.612373-23.701535 12.038898C526.740726 476.449148 526.252449 476.454893 525.764172 476.454893L525.764172 476.454893zM704.476385 493.6049 353.039095 493.6049c-17.822106 0-32.273666-14.45156-32.273666-32.279411 0-17.822106 14.45156-32.273666 32.273666-32.273666l351.43729 0c17.822106 0 32.273666 14.45156 32.273666 32.273666C736.748615 479.147596 722.298492 493.6049 704.476385 493.6049L704.476385 493.6049zM745.977048 612.806213 312.737583 612.806213c-21.973896 0-39.790258-14.450124-39.790258-32.277975 0-17.822106 17.816362-32.275102 39.790258-32.275102l433.239466 0c21.968152 0 39.784514 14.45156 39.784514 32.275102C785.761562 598.35609 767.9452 612.806213 745.977048 612.806213L745.977048 612.806213zM350.043373 585.610627l351.431546 0L350.043373 585.610627 350.043373 585.610627zM525.764172 806.456827c-17.822106 0-32.277975-14.450124-32.277975-32.27223L493.486198 461.32549c0-17.822106 14.455868-32.273666 32.277975-32.273666s32.273666 14.45156 32.273666 32.273666l0 312.859108C558.037838 792.006704 543.586278 806.456827 525.764172 806.456827L525.764172 806.456827zM517.551068 1023.999978c-23.099805 0-46.393485-1.576847-69.717323-4.740594-135.219667-18.37788-255.936075-88.365192-339.915392-197.105891C27.698769 718.282638-8.669243 580.248198 8.126046 443.44163c16.7838-136.582534 84.94869-260.138129 187.035898-338.971868C350.973971-15.860332 565.604694-33.801636 741.938711 58.761301c26.853793 14.102585 52.636249 30.691075 76.602027 49.310221 14.092533 10.933094 16.627264 31.206638 5.711403 45.293426-10.956072 14.079608-31.23536 16.598542-45.293426 5.688426-20.974365-16.291215-43.532757-30.804527-67.026056-43.134955-154.016892-80.852908-341.411817-65.302725-477.303583 39.640903C146.087245 223.929575 86.893725 331.728187 72.206643 451.311505c-14.748834 120.078776 16.880019 240.8555 86.805578 331.382035 73.550297 95.232663 179.20049 156.520029 297.504236 172.598699 118.148646 16.055693 234.753475-14.924039 328.382004-87.226358 193.397859-149.355283 227.314433-430.693246 75.613984-627.13709-10.888575-14.10833-8.290654-34.376129 5.811931-45.276192 14.092533-10.871341 34.360332-8.302143 45.276192 5.817676 173.466109 224.615985 134.320664 546.568532-87.243591 717.683731C735.45899 987.815788 628.53066 1023.999978 517.551068 1023.999978L517.551068 1023.999978zM517.551068 1023.999978" fill="#56abe4"></path></g></g></svg>